<svg width="25" height="31" viewBox="0 0 25 31" fill="none" xmlns="http://www.w3.org/2000/svg">
<path d="M3.36602 22.6339C2.05931 22.984 1.28384 24.3271 1.63397 25.6339C1.98411 26.9406 3.32725 27.716 4.63397 27.3659C5.94069 27.0158 6.71616 25.6726 6.36602 24.3659C6.01589 23.0592 4.67274 22.2837 3.36602 22.6339Z" fill="#FF7A00"/>
<path d="M5.66675 23.8477C6.00823 24.4392 6.05556 25.0511 5.77245 25.2146C5.48935 25.378 5.50459 24.7225 5.1631 24.1311C4.82162 23.5396 4.25272 23.2361 4.53583 23.0727C4.81893 22.9092 5.32526 23.2562 5.66675 23.8477Z" fill="white" fill-opacity="0.5"/>
<path d="M5.916 24.7129C5.20507 25.8638 5.56178 27.3732 6.71274 28.0841C7.86369 28.795 9.37304 28.4383 10.084 27.2874C10.7949 26.1364 10.4382 24.627 9.28723 23.9161C8.13628 23.2052 6.62692 23.5619 5.916 24.7129Z" fill="#FF7A00"/>
<path d="M8.42277 24.0185C9.07692 24.2148 9.53105 24.6277 9.4371 24.9408C9.34314 25.2539 8.9047 24.7664 8.25055 24.5701C7.59639 24.3738 6.97425 24.5431 7.0682 24.23C7.16216 23.9169 7.76862 23.8222 8.42277 24.0185Z" fill="white" fill-opacity="0.5"/>
<path d="M5.15672 19.9536C4.44579 21.1045 4.80251 22.6139 5.95346 23.3248C7.10441 24.0357 8.61377 23.679 9.32469 22.5281C10.0356 21.3771 9.67891 19.8678 8.52795 19.1568C7.377 18.4459 5.86765 18.8026 5.15672 19.9536Z" fill="#FF7A00"/>
<path d="M7.66349 19.2592C8.31765 19.4555 8.77178 19.8684 8.67782 20.1815C8.58387 20.4946 8.14542 20.0071 7.49127 19.8108C6.83712 19.6145 6.21497 19.7838 6.30892 19.4707C6.40288 19.1576 7.00934 19.0629 7.66349 19.2592Z" fill="white" fill-opacity="0.5"/>
<path d="M2.15672 18.9536C1.44579 20.1045 1.80251 21.6139 2.95346 22.3248C4.10441 23.0357 5.61377 22.679 6.32469 21.5281C7.03562 20.3771 6.67891 18.8678 5.52795 18.1568C4.377 17.4459 2.86765 17.8026 2.15672 18.9536Z" fill="#FF7A00"/>
<path d="M4.66349 18.2592C5.31765 18.4555 5.77178 18.8684 5.67782 19.1815C5.58387 19.4946 5.14542 19.0071 4.49127 18.8108C3.83712 18.6145 3.21497 18.7838 3.30892 18.4707C3.40288 18.1576 4.00934 18.0629 4.66349 18.2592Z" fill="white" fill-opacity="0.5"/>
<path d="M9.15672 20.9536C8.44579 22.1045 8.80251 23.6139 9.95346 24.3248C11.1044 25.0357 12.6138 24.679 13.3247 23.5281C14.0356 22.3771 13.6789 20.8678 12.528 20.1568C11.377 19.4459 9.86765 19.8026 9.15672 20.9536Z" fill="#FF7A00"/>
<path d="M11.6635 20.2592C12.3176 20.4555 12.7718 20.8684 12.6778 21.1815C12.5839 21.4946 12.1454 21.0071 11.4913 20.8108C10.8371 20.6145 10.215 20.7838 10.3089 20.4707C10.4029 20.1576 11.0093 20.0629 11.6635 20.2592Z" fill="white" fill-opacity="0.5"/>
<path d="M11.1567 23.9536C10.4458 25.1045 10.8025 26.6139 11.9535 27.3248C13.1044 28.0357 14.6138 27.679 15.3247 26.5281C16.0356 25.3771 15.6789 23.8678 14.528 23.1568C13.377 22.4459 11.8676 22.8026 11.1567 23.9536Z" fill="#FF7A00"/>
<path d="M13.6635 23.2592C14.3176 23.4555 14.7718 23.8684 14.6778 24.1815C14.5839 24.4946 14.1454 24.0071 13.4913 23.8108C12.8371 23.6145 12.215 23.7838 12.3089 23.4707C12.4029 23.1576 13.0093 23.0629 13.6635 23.2592Z" fill="white" fill-opacity="0.5"/>
<path d="M14.1567 19.9536C13.4458 21.1045 13.8025 22.6139 14.9535 23.3248C16.1044 24.0357 17.6138 23.679 18.3247 22.5281C19.0356 21.3771 18.6789 19.8678 17.528 19.1568C16.377 18.4459 14.8676 18.8026 14.1567 19.9536Z" fill="#FF7A00"/>
<path d="M16.6635 19.2592C17.3176 19.4555 17.7718 19.8684 17.6778 20.1815C17.5839 20.4946 17.1454 20.0071 16.4913 19.8108C15.8371 19.6145 15.215 19.7838 15.3089 19.4707C15.4029 19.1576 16.0093 19.0629 16.6635 19.2592Z" fill="white" fill-opacity="0.5"/>
<path d="M2.15672 13.9536C1.44579 15.1045 1.80251 16.6139 2.95346 17.3248C4.10441 18.0357 5.61377 17.679 6.32469 16.5281C7.03562 15.3771 6.67891 13.8678 5.52795 13.1568C4.377 12.4459 2.86765 12.8026 2.15672 13.9536Z" fill="#FF7A00"/>
<path d="M4.66349 13.2592C5.31765 13.4555 5.77178 13.8684 5.67782 14.1815C5.58387 14.4946 5.14542 14.0071 4.49127 13.8108C3.83712 13.6145 3.21497 13.7838 3.30892 13.4707C3.40288 13.1576 4.00934 13.0629 4.66349 13.2592Z" fill="white" fill-opacity="0.5"/>
<path d="M5.15672 15.9536C4.44579 17.1045 4.80251 18.6139 5.95346 19.3248C7.10441 20.0357 8.61377 19.679 9.32469 18.5281C10.0356 17.3771 9.67891 15.8678 8.52795 15.1568C7.377 14.4459 5.86765 14.8026 5.15672 15.9536Z" fill="#FF7A00"/>
<path d="M7.66349 15.2592C8.31765 15.4555 8.77178 15.8684 8.67782 16.1815C8.58387 16.4946 8.14542 16.0071 7.49127 15.8108C6.83712 15.6145 6.21497 15.7838 6.30892 15.4707C6.40288 15.1576 7.00934 15.0629 7.66349 15.2592Z" fill="white" fill-opacity="0.5"/>
<path d="M10.1567 16.9536C9.44579 18.1045 9.80251 19.6139 10.9535 20.3248C12.1044 21.0357 13.6138 20.679 14.3247 19.5281C15.0356 18.3771 14.6789 16.8678 13.528 16.1568C12.377 15.4459 10.8676 15.8026 10.1567 16.9536Z" fill="#FF7A00"/>
<path d="M12.6635 16.2592C13.3176 16.4555 13.7718 16.8684 13.6778 17.1815C13.5839 17.4946 13.1454 17.0071 12.4913 16.8108C11.8371 16.6145 11.215 16.7838 11.3089 16.4707C11.4029 16.1576 12.0093 16.0629 12.6635 16.2592Z" fill="white" fill-opacity="0.5"/>
<path d="M13.1567 13.9536C12.4458 15.1045 12.8025 16.6139 13.9535 17.3248C15.1044 18.0357 16.6138 17.679 17.3247 16.5281C18.0356 15.3771 17.6789 13.8678 16.528 13.1568C15.377 12.4459 13.8676 12.8026 13.1567 13.9536Z" fill="#FF7A00"/>
<path d="M15.6635 13.2592C16.3176 13.4555 16.7718 13.8684 16.6778 14.1815C16.5839 14.4946 16.1454 14.0071 15.4913 13.8108C14.8371 13.6145 14.215 13.7838 14.3089 13.4707C14.4029 13.1576 15.0093 13.0629 15.6635 13.2592Z" fill="white" fill-opacity="0.5"/>
<path d="M7.15672 11.9536C6.44579 13.1045 6.80251 14.6139 7.95346 15.3248C9.10441 16.0357 10.6138 15.679 11.3247 14.5281C12.0356 13.3771 11.6789 11.8678 10.528 11.1568C9.377 10.4459 7.86765 10.8026 7.15672 11.9536Z" fill="#FF7A00"/>
<path d="M9.66349 11.2592C10.3176 11.4555 10.7718 11.8684 10.6778 12.1815C10.5839 12.4946 10.1454 12.0071 9.49127 11.8108C8.83712 11.6145 8.21497 11.7838 8.30892 11.4707C8.40288 11.1576 9.00934 11.0629 9.66349 11.2592Z" fill="white" fill-opacity="0.5"/>
<path d="M18.1567 10.9536C17.4458 12.1045 17.8025 13.6139 18.9535 14.3248C20.1044 15.0357 21.6138 14.679 22.3247 13.5281C23.0356 12.3771 22.6789 10.8678 21.528 10.1568C20.377 9.44592 18.8676 9.80263 18.1567 10.9536Z" fill="#FF7A00"/>
<path d="M20.6635 10.2592C21.3176 10.4555 21.7718 10.8684 21.6778 11.1815C21.5839 11.4946 21.1454 11.0071 20.4913 10.8108C19.8371 10.6145 19.215 10.7838 19.3089 10.4707C19.4029 10.1576 20.0093 10.0629 20.6635 10.2592Z" fill="white" fill-opacity="0.5"/>
<path d="M17.1567 15.9536C16.4458 17.1045 16.8025 18.6139 17.9535 19.3248C19.1044 20.0357 20.6138 19.679 21.3247 18.5281C22.0356 17.3771 21.6789 15.8678 20.528 15.1568C19.377 14.4459 17.8676 14.8026 17.1567 15.9536Z" fill="#FF7A00"/>
<path d="M19.6635 15.2592C20.3176 15.4555 20.7718 15.8684 20.6778 16.1815C20.5839 16.4946 20.1454 16.0071 19.4913 15.8108C18.8371 15.6145 18.215 15.7838 18.3089 15.4707C18.4029 15.1576 19.0093 15.0629 19.6635 15.2592Z" fill="white" fill-opacity="0.5"/>
<path d="M16.1567 24.9536C15.4458 26.1045 15.8025 27.6139 16.9535 28.3248C18.1044 29.0357 19.6138 28.679 20.3247 27.5281C21.0356 26.3771 20.6789 24.8678 19.528 24.1568C18.377 23.4459 16.8676 23.8026 16.1567 24.9536Z" fill="#FF7A00"/>
<path d="M18.6635 24.2592C19.3176 24.4555 19.7718 24.8684 19.6778 25.1815C19.5839 25.4946 19.1454 25.0071 18.4913 24.8108C17.8371 24.6145 17.215 24.7838 17.3089 24.4707C17.4029 24.1576 18.0093 24.0629 18.6635 24.2592Z" fill="white" fill-opacity="0.5"/>
<path d="M18.1567 21.9536C17.4458 23.1045 17.8025 24.6139 18.9535 25.3248C20.1044 26.0357 21.6138 25.679 22.3247 24.5281C23.0356 23.3771 22.6789 21.8678 21.528 21.1568C20.377 20.4459 18.8676 20.8026 18.1567 21.9536Z" fill="#FF7A00"/>
<path d="M20.6635 21.2592C21.3176 21.4555 21.7718 21.8684 21.6778 22.1815C21.5839 22.4946 21.1454 22.0071 20.4913 21.8108C19.8371 21.6145 19.215 21.7838 19.3089 21.4707C19.4029 21.1576 20.0093 21.0629 20.6635 21.2592Z" fill="white" fill-opacity="0.5"/>
<path d="M19.1719 4.70437V2.25C19.1719 1.75686 18.976 1.28392 18.6273 0.935223C18.2786 0.586523 17.8056 0.390625 17.3125 0.390625H6.6875C6.19436 0.390625 5.72142 0.586523 5.37272 0.935223C5.02402 1.28392 4.82812 1.75686 4.82812 2.25V4.70437C3.64344 4.89517 2.5653 5.50129 1.78663 6.41428C1.00796 7.32727 0.579574 8.48755 0.578125 9.6875V24.5625C0.578125 25.901 1.10985 27.1847 2.05632 28.1312C3.00279 29.0777 4.28649 29.6094 5.625 29.6094H18.375C19.7135 29.6094 20.9972 29.0777 21.9437 28.1312C22.8902 27.1847 23.4219 25.901 23.4219 24.5625V9.6875C23.4204 8.48755 22.992 7.32727 22.2134 6.41428C21.4347 5.50129 20.3566 4.89517 19.1719 4.70437ZM17.5781 2.25V4.64062H14.9219V1.98438H17.3125C17.3829 1.98438 17.4505 2.01236 17.5003 2.06217C17.5501 2.11199 17.5781 2.17955 17.5781 2.25ZM10.6719 4.64062V1.98438H13.3281V4.64062H10.6719ZM6.6875 1.98438H9.07812V4.64062H6.42188V2.25C6.42188 2.17955 6.44986 2.11199 6.49967 2.06217C6.54949 2.01236 6.61705 1.98438 6.6875 1.98438ZM21.8281 24.5625C21.8281 25.016 21.7388 25.465 21.5653 25.884C21.3917 26.3029 21.1374 26.6836 20.8167 27.0042C20.4961 27.3249 20.1154 27.5792 19.6965 27.7528C19.2775 27.9263 18.8285 28.0156 18.375 28.0156H5.625C5.17153 28.0156 4.7225 27.9263 4.30355 27.7528C3.88459 27.5792 3.50392 27.3249 3.18327 27.0042C2.86262 26.6836 2.60826 26.3029 2.43473 25.884C2.26119 25.465 2.17188 25.016 2.17188 24.5625V9.6875C2.17188 8.77167 2.53569 7.89336 3.18327 7.24577C3.83086 6.59819 4.70917 6.23438 5.625 6.23438H18.375C19.2908 6.23438 20.1691 6.59819 20.8167 7.24577C21.4643 7.89336 21.8281 8.77167 21.8281 9.6875V24.5625Z" fill="white"/>
</svg>
