<svg width="19" height="16" viewBox="0 0 19 16" fill="none" xmlns="http://www.w3.org/2000/svg">
<path d="M16.758 1.04525C16.758 1.04525 18.3769 0.414 18.242 1.94704C18.197 2.5783 17.7923 4.78767 17.4775 7.17742L16.3983 14.2565C16.3983 14.2565 16.3084 15.2935 15.4989 15.4739C14.6895 15.6542 13.4753 14.8426 13.2505 14.6623C13.0706 14.527 9.87783 12.498 8.75358 11.506C8.43879 11.2355 8.07904 10.6944 8.79854 10.0631L13.5203 5.55421C14.0599 5.01313 14.5995 3.75063 12.3511 5.28367L6.05546 9.56717C6.05546 9.56717 5.33596 10.018 3.98692 9.61225L1.06393 8.71046C1.06393 8.71046 -0.0153289 8.03413 1.8284 7.35775C6.32529 5.23854 11.8565 3.07425 16.758 1.04525Z" fill="white"/>
</svg>
