<svg width="24" height="30" viewBox="0 0 24 30" fill="none" xmlns="http://www.w3.org/2000/svg">
<path d="M19.1719 4.70437V2.25C19.1719 1.75686 18.976 1.28392 18.6273 0.935223C18.2786 0.586523 17.8056 0.390625 17.3125 0.390625H6.6875C6.19436 0.390625 5.72142 0.586523 5.37272 0.935223C5.02402 1.28392 4.82812 1.75686 4.82812 2.25V4.70437C3.64344 4.89517 2.5653 5.50129 1.78663 6.41428C1.00796 7.32727 0.579574 8.48755 0.578125 9.6875V24.5625C0.578125 25.901 1.10985 27.1847 2.05632 28.1312C3.00279 29.0777 4.28649 29.6094 5.625 29.6094H18.375C19.7135 29.6094 20.9972 29.0777 21.9437 28.1312C22.8902 27.1847 23.4219 25.901 23.4219 24.5625V9.6875C23.4204 8.48755 22.992 7.32727 22.2134 6.41428C21.4347 5.50129 20.3566 4.89517 19.1719 4.70437ZM17.5781 2.25V4.64062H14.9219V1.98438H17.3125C17.3829 1.98438 17.4505 2.01236 17.5003 2.06217C17.5501 2.11199 17.5781 2.17955 17.5781 2.25ZM10.6719 4.64062V1.98438H13.3281V4.64062H10.6719ZM6.6875 1.98438H9.07812V4.64062H6.42188V2.25C6.42188 2.17955 6.44986 2.11199 6.49967 2.06217C6.54949 2.01236 6.61705 1.98438 6.6875 1.98438ZM21.8281 24.5625C21.8281 25.016 21.7388 25.465 21.5653 25.884C21.3917 26.3029 21.1374 26.6836 20.8167 27.0042C20.4961 27.3249 20.1154 27.5792 19.6965 27.7528C19.2775 27.9263 18.8285 28.0156 18.375 28.0156H5.625C5.17153 28.0156 4.7225 27.9263 4.30355 27.7528C3.88459 27.5792 3.50392 27.3249 3.18327 27.0042C2.86262 26.6836 2.60826 26.3029 2.43473 25.884C2.26119 25.465 2.17188 25.016 2.17188 24.5625V9.6875C2.17188 8.77167 2.53569 7.89336 3.18327 7.24577C3.83086 6.59819 4.70917 6.23438 5.625 6.23438H18.375C19.2908 6.23438 20.1691 6.59819 20.8167 7.24577C21.4643 7.89336 21.8281 8.77167 21.8281 9.6875V24.5625Z" fill="white"/>
</svg>
