<svg width="69" height="69" viewBox="0 0 69 69" fill="none" xmlns="http://www.w3.org/2000/svg">
<g filter="url(#filter0_d_1_5657)">
<circle cx="34.5" cy="34.4999" r="19.975" fill="#777777"/>
</g>
<path d="M31.8858 56.259C31.3963 55.7107 30.8402 55.088 30.4172 55.0057C29.7337 55.0348 29.0707 55.2479 28.4982 55.6226L28.5119 55.6128C27.8207 56.0193 27.0499 56.2718 26.2522 56.353L26.2287 56.355H26.2091C25.9625 56.3553 25.7182 56.3067 25.4905 56.212L25.5022 56.216C24.5407 55.8165 24.1511 54.7041 23.779 53.627C23.6298 52.9785 23.3224 52.377 22.8841 51.8763L22.8881 51.8802C22.5494 51.7158 22.1722 51.6473 21.7973 51.6824H21.8052C21.5193 51.6824 21.2177 51.7 20.9162 51.7177C20.5911 51.7373 20.2661 51.7529 19.9567 51.7529C19.5851 51.788 19.2103 51.7492 18.8538 51.639C18.4973 51.5288 18.166 51.3492 17.8791 51.1106L17.883 51.1145C17.5749 50.6752 17.3625 50.1761 17.2596 49.6495C17.1567 49.1229 17.1656 48.5805 17.2857 48.0575L17.2818 48.083C17.3966 47.4133 17.34 46.7255 17.1173 46.0835L17.1252 46.1129C16.6335 45.6807 16.0431 45.376 15.4059 45.2258L15.3785 45.2199C14.3015 44.8459 13.1853 44.4581 12.7898 43.4966C12.6763 42.978 12.6722 42.4414 12.7777 41.9211C12.8833 41.4008 13.0961 40.9083 13.4027 40.4749L13.3948 40.4866C13.7526 39.9123 13.9594 39.2568 13.996 38.5812V38.5714C13.9138 38.1464 13.2911 37.5922 12.7428 37.1026C11.8851 36.3428 11 35.5536 11 34.498C11 33.4425 11.8851 32.6533 12.7408 31.8876C13.2891 31.398 13.9118 30.8418 13.994 30.4188C13.9543 29.7366 13.7421 29.0756 13.3772 28.4977L13.387 28.5134C13.0813 28.0767 12.8702 27.5809 12.7674 27.0578C12.6645 26.5347 12.6722 25.996 12.7898 25.476L12.7859 25.5015C13.1853 24.5399 14.2976 24.1502 15.3746 23.7781C16.0521 23.6195 16.6415 23.3081 17.1252 22.8812L17.1212 22.8851C17.342 22.244 17.3946 21.5569 17.274 20.8896L17.2779 20.9131C17.1625 20.3911 17.1569 19.8509 17.2614 19.3267C17.3659 18.8024 17.5782 18.3057 17.8849 17.8679L17.8771 17.8796C18.1655 17.6419 18.4981 17.4635 18.8556 17.3546C19.2131 17.2458 19.5886 17.2085 19.9606 17.2451H19.9488C20.2621 17.2451 20.5852 17.2628 20.9083 17.2804C21.2099 17.298 21.5115 17.3156 21.7973 17.3156C22.1738 17.3501 22.5525 17.2803 22.892 17.1139L22.8802 17.1198C23.3012 16.638 23.6126 16.0505 23.7653 15.4004L23.7712 15.373C24.1472 14.2959 24.5349 13.1796 25.4944 12.784C25.7186 12.6921 25.9589 12.6455 26.2013 12.647H26.2228H26.2209C27.0746 12.7351 27.8501 12.9995 28.5335 13.4029L28.506 13.3892C29.0714 13.761 29.7274 13.9715 30.4035 13.9982H30.4113C30.8363 13.916 31.3904 13.2932 31.88 12.7449C32.6515 11.8852 33.4426 11 34.498 11C35.5535 11 36.3426 11.8852 37.1083 12.7429C37.5978 13.2912 38.1539 13.914 38.5769 13.9962C39.2603 13.9647 39.9228 13.7511 40.4959 13.3774L40.4803 13.3872C41.172 12.9808 41.9436 12.7289 42.7419 12.6489L42.7654 12.647H42.785C43.0396 12.647 43.2824 12.6979 43.5037 12.7899L43.4919 12.786C44.4534 13.1855 44.8431 14.2978 45.2151 15.3749C45.3737 16.0525 45.6851 16.64 46.11 17.1257L46.1061 17.1217C46.4454 17.286 46.8236 17.3531 47.1987 17.3156H47.1909C47.4768 17.3156 47.7784 17.298 48.0799 17.2823C48.405 17.2647 48.73 17.2471 49.0394 17.2471C49.4112 17.2123 49.7863 17.2512 50.1431 17.3614C50.4999 17.4716 50.8315 17.651 51.119 17.8894L51.1151 17.8855C51.4222 18.3253 51.6338 18.8245 51.7363 19.351C51.8388 19.8775 51.83 20.4196 51.7104 20.9425L51.7143 20.917C51.5992 21.5868 51.6565 22.2749 51.8807 22.9165L51.8729 22.889C52.3526 23.312 52.942 23.6234 53.5922 23.7742L53.6196 23.7801C54.6966 24.1561 55.8127 24.5438 56.2083 25.5034C56.3206 26.022 56.3243 26.5582 56.2191 27.0782C56.114 27.5983 55.9023 28.0909 55.5973 28.5251L55.6052 28.5134C55.2464 29.0833 55.0376 29.7348 54.9981 30.4071V30.4188C55.0804 30.8438 55.7031 31.398 56.2514 31.8876C57.1149 32.6572 58 33.4464 58 34.502C58 35.5575 57.1149 36.3487 56.2572 37.1144C55.7089 37.604 55.0862 38.1582 55.004 38.5831C55.0471 39.294 55.2684 39.9461 55.6208 40.5062L55.611 40.4886C55.9168 40.9249 56.1279 41.4203 56.2308 41.9431C56.3336 42.4659 56.326 43.0044 56.2083 43.524L56.2122 43.4985C55.8147 44.462 54.7005 44.8498 53.6235 45.2219C52.9746 45.371 52.373 45.6793 51.8729 46.1188L51.8768 46.1149C51.656 46.756 51.6035 47.4431 51.7241 48.1104L51.7201 48.0869C51.8353 48.6086 51.8408 49.1484 51.7363 49.6723C51.6318 50.1962 51.4196 50.6926 51.1131 51.1302L51.1209 51.1184C50.833 51.3566 50.501 51.5355 50.1438 51.6451C49.7866 51.7546 49.4113 51.7926 49.0394 51.7568H49.0512C48.7379 51.7568 48.4148 51.7392 48.0917 51.7216C47.7957 51.7013 47.4993 51.6896 47.2026 51.6863C46.8261 51.6511 46.4473 51.721 46.108 51.888L46.1198 51.8822C45.6889 52.3745 45.385 52.9648 45.2347 53.6016L45.2288 53.629C44.8528 54.7061 44.4651 55.8223 43.5056 56.2179C43.2814 56.3099 43.0411 56.3564 42.7987 56.355H42.7772C41.961 56.2736 41.1744 56.015 40.4685 55.5971L40.494 55.6108C39.9288 55.2388 39.2726 55.0289 38.5965 55.0037H38.5887C38.1637 55.086 37.6096 55.7088 37.12 56.2571C36.3466 57.1148 35.5574 58 34.5 58C33.4426 58 32.6534 57.1148 31.8858 56.259ZM38.8021 25.3135L29.2462 42.68C29.219 42.7294 29.2052 42.7851 29.206 42.8415C29.2069 42.8979 29.2224 42.9531 29.251 43.0017C29.2797 43.0503 29.3205 43.0906 29.3694 43.1187C29.4184 43.1467 29.4738 43.1616 29.5302 43.1617H31.1887C31.2463 43.1618 31.3029 43.1464 31.3525 43.1171C31.4021 43.0878 31.443 43.0457 31.4707 42.9952L41.0129 25.6248C41.0401 25.5754 41.0539 25.5197 41.0531 25.4633C41.0522 25.4069 41.0367 25.3517 41.0081 25.3031C40.9794 25.2545 40.9386 25.2142 40.8897 25.1861C40.8408 25.1581 40.7854 25.1432 40.7289 25.1431H39.086C39.028 25.1432 38.971 25.1589 38.9211 25.1886C38.8712 25.2182 38.8301 25.2626 38.8021 25.3135ZM37.4235 34.2219C37.1747 34.4276 36.9744 34.6858 36.837 34.978C36.6995 35.2702 36.6284 35.5891 36.6285 35.912V40.6139C36.6285 41.2876 36.9379 41.8888 37.4216 42.2844L37.4255 42.2883C37.9268 42.7074 38.5769 42.96 39.2877 42.96C39.9985 42.96 40.6487 42.7054 41.1539 42.2844L41.1499 42.2883C41.6395 41.8908 41.9489 41.2895 41.9489 40.6159V35.9159C41.9489 35.2422 41.6454 34.6371 41.1695 34.2337L41.1656 34.2317C40.6693 33.7857 40.0254 33.5395 39.3582 33.5404H39.2975H39.3014H39.2407C38.5717 33.5395 37.9253 33.7832 37.4235 34.2258L37.4275 34.2239L37.4235 34.2219ZM29.1131 25.7874C28.8642 25.9931 28.6639 26.2513 28.5265 26.5434C28.3891 26.8356 28.3179 27.1545 28.3181 27.4774V32.1774C28.3181 32.853 28.6255 33.4582 29.1111 33.8557L29.115 33.8596C29.6163 34.2846 30.2684 34.5411 30.9812 34.5411C31.6939 34.5411 32.348 34.2826 32.8512 33.8557L32.8473 33.8596C33.3408 33.4582 33.6521 32.853 33.6521 32.1735V27.4853C33.6521 26.8057 33.3447 26.2006 32.8591 25.7972L32.8551 25.7952C32.3322 25.3498 31.6677 25.1053 30.9808 25.1057C30.2939 25.106 29.6296 25.3512 29.1072 25.7972L29.1111 25.7933L29.1131 25.7874ZM38.8608 40.8685C38.8187 40.835 38.7847 40.7924 38.7613 40.7439C38.7379 40.6954 38.7258 40.6423 38.7257 40.5885V35.8865C38.7257 35.7729 38.7786 35.673 38.8589 35.6084C38.9605 35.5202 39.0905 35.4715 39.2251 35.4713H39.2505H39.2486H39.2721C39.4069 35.4712 39.5374 35.5191 39.6402 35.6065C39.682 35.6398 39.7159 35.6821 39.7393 35.7302C39.7627 35.7783 39.775 35.831 39.7753 35.8845V40.5885C39.7753 40.6418 39.7634 40.6945 39.7404 40.7426C39.7173 40.7908 39.6837 40.8331 39.6422 40.8665C39.5364 40.9527 39.3993 41.0036 39.2505 41.0036C39.1017 41.0036 38.9646 40.9527 38.8569 40.8646H38.8589L38.8608 40.8685ZM30.5582 32.4359C30.5163 32.4022 30.4824 32.3596 30.4591 32.3111C30.4357 32.2627 30.4234 32.2097 30.4231 32.1559V27.4559C30.4231 27.3423 30.476 27.2424 30.5562 27.1758C30.662 27.0897 30.7991 27.0387 30.9479 27.0387C31.0967 27.0387 31.2338 27.0897 31.3415 27.1778C31.3836 27.2113 31.4156 27.2539 31.439 27.3024C31.4624 27.3509 31.4746 27.404 31.4746 27.4578V32.1598C31.4745 32.2134 31.4625 32.2664 31.4395 32.3148C31.4165 32.3632 31.383 32.4059 31.3415 32.4398C31.2357 32.526 31.0987 32.5769 30.9498 32.5769C30.801 32.5769 30.6639 32.526 30.5562 32.4379L30.5582 32.4359Z" fill="#292929"/>
<defs>
<filter id="filter0_d_1_5657" x="0.660025" y="0.659903" width="67.68" height="67.68" filterUnits="userSpaceOnUse" color-interpolation-filters="sRGB">
<feFlood flood-opacity="0" result="BackgroundImageFix"/>
<feColorMatrix in="SourceAlpha" type="matrix" values="0 0 0 0 0 0 0 0 0 0 0 0 0 0 0 0 0 0 127 0" result="hardAlpha"/>
<feOffset/>
<feGaussianBlur stdDeviation="6.9325"/>
<feComposite in2="hardAlpha" operator="out"/>
<feColorMatrix type="matrix" values="0 0 0 0 1 0 0 0 0 0.556284 0 0 0 0 0.0353994 0 0 0 1 0"/>
<feBlend mode="normal" in2="BackgroundImageFix" result="effect1_dropShadow_1_5657"/>
<feBlend mode="normal" in="SourceGraphic" in2="effect1_dropShadow_1_5657" result="shape"/>
</filter>
</defs>
</svg>
