<svg width="68" height="68" viewBox="0 0 68 68" fill="none" xmlns="http://www.w3.org/2000/svg">
<path fill-rule="evenodd" clip-rule="evenodd" d="M57.7522 3.11843C54.3533 0.149056 22.101 -0.0937244 12.0724 14.7345C8.18793 20.4678 10.3916 34.3809 17.6376 50.1242C18.8329 52.7201 19.6732 54.4942 20.4576 57.1648C20.5136 57.3329 19.5239 56.4551 18.2539 55.1852C15.2472 52.1785 13.3423 51.1327 11.867 51.6929C11.1573 51.9731 11.288 52.3092 12.4646 53.243C15.8448 55.9136 18.5527 59.3498 21.5408 64.8217C22.7173 66.9693 25.556 68.5754 25.556 62.3939C25.556 57.1648 25.9668 54.0087 27.3301 49.1718C28.2079 46.0343 26.8819 44.3909 25.0517 46.3331C24.4168 47.0054 23.427 50.311 22.792 53.8593L22.4745 55.6708C19.5425 49.2652 19.3371 48.873 17.3202 43.5879C12.5393 31.0194 11.6615 21.4763 14.855 16.6207C22.9414 4.351 44.8476 4.03352 57.8269 3.9028C58.1818 3.9028 58.1444 3.4546 57.7522 3.11843Z" fill="white"/>
</svg>
