<svg width="24" height="31" viewBox="0 0 24 31" fill="none" xmlns="http://www.w3.org/2000/svg">
<path d="M3.36602 22.6339C2.05931 22.984 1.28384 24.3271 1.63397 25.6339C1.98411 26.9406 3.32725 27.716 4.63397 27.3659C5.94069 27.0158 6.71616 25.6726 6.36602 24.3659C6.01589 23.0592 4.67274 22.2837 3.36602 22.6339Z" fill="#FF7A00"/>
<path d="M5.66675 23.8477C6.00823 24.4392 6.05556 25.0511 5.77245 25.2146C5.48935 25.378 5.50459 24.7225 5.1631 24.1311C4.82162 23.5396 4.25272 23.2361 4.53583 23.0727C4.81893 22.9092 5.32526 23.2562 5.66675 23.8477Z" fill="white" fill-opacity="0.5"/>
<path d="M5.916 24.7129C5.20507 25.8638 5.56178 27.3732 6.71274 28.0841C7.86369 28.795 9.37304 28.4383 10.084 27.2874C10.7949 26.1364 10.4382 24.627 9.28723 23.9161C8.13628 23.2052 6.62692 23.5619 5.916 24.7129Z" fill="#FF7A00"/>
<path d="M8.42277 24.0185C9.07692 24.2148 9.53105 24.6277 9.4371 24.9408C9.34314 25.2539 8.9047 24.7664 8.25055 24.5701C7.59639 24.3738 6.97425 24.5431 7.0682 24.23C7.16216 23.9169 7.76862 23.8222 8.42277 24.0185Z" fill="white" fill-opacity="0.5"/>
<path d="M11.1567 23.9536C10.4458 25.1045 10.8025 26.6139 11.9535 27.3248C13.1044 28.0357 14.6138 27.679 15.3247 26.5281C16.0356 25.3771 15.6789 23.8678 14.528 23.1568C13.377 22.4459 11.8676 22.8026 11.1567 23.9536Z" fill="#FF7A00"/>
<path d="M13.6635 23.2592C14.3176 23.4555 14.7718 23.8684 14.6778 24.1815C14.5839 24.4946 14.1454 24.0071 13.4913 23.8108C12.8371 23.6145 12.215 23.7838 12.3089 23.4707C12.4029 23.1576 13.0093 23.0629 13.6635 23.2592Z" fill="white" fill-opacity="0.5"/>
<path d="M19.1719 4.70437V2.25C19.1719 1.75686 18.976 1.28392 18.6273 0.935223C18.2786 0.586523 17.8056 0.390625 17.3125 0.390625H6.6875C6.19436 0.390625 5.72142 0.586523 5.37272 0.935223C5.02402 1.28392 4.82812 1.75686 4.82812 2.25V4.70437C3.64344 4.89517 2.5653 5.50129 1.78663 6.41428C1.00796 7.32727 0.579574 8.48755 0.578125 9.6875V24.5625C0.578125 25.901 1.10985 27.1847 2.05632 28.1312C3.00279 29.0777 4.28649 29.6094 5.625 29.6094H18.375C19.7135 29.6094 20.9972 29.0777 21.9437 28.1312C22.8902 27.1847 23.4219 25.901 23.4219 24.5625V9.6875C23.4204 8.48755 22.992 7.32727 22.2134 6.41428C21.4347 5.50129 20.3566 4.89517 19.1719 4.70437ZM17.5781 2.25V4.64062H14.9219V1.98438H17.3125C17.3829 1.98438 17.4505 2.01236 17.5003 2.06217C17.5501 2.11199 17.5781 2.17955 17.5781 2.25ZM10.6719 4.64062V1.98438H13.3281V4.64062H10.6719ZM6.6875 1.98438H9.07812V4.64062H6.42188V2.25C6.42188 2.17955 6.44986 2.11199 6.49967 2.06217C6.54949 2.01236 6.61705 1.98438 6.6875 1.98438ZM21.8281 24.5625C21.8281 25.016 21.7388 25.465 21.5653 25.884C21.3917 26.3029 21.1374 26.6836 20.8167 27.0042C20.4961 27.3249 20.1154 27.5792 19.6965 27.7528C19.2775 27.9263 18.8285 28.0156 18.375 28.0156H5.625C5.17153 28.0156 4.7225 27.9263 4.30355 27.7528C3.88459 27.5792 3.50392 27.3249 3.18327 27.0042C2.86262 26.6836 2.60826 26.3029 2.43473 25.884C2.26119 25.465 2.17188 25.016 2.17188 24.5625V9.6875C2.17188 8.77167 2.53569 7.89336 3.18327 7.24577C3.83086 6.59819 4.70917 6.23438 5.625 6.23438H18.375C19.2908 6.23438 20.1691 6.59819 20.8167 7.24577C21.4643 7.89336 21.8281 8.77167 21.8281 9.6875V24.5625Z" fill="white"/>
</svg>
