<svg width="25" height="31" viewBox="0 0 25 31" fill="none" xmlns="http://www.w3.org/2000/svg">
<path d="M3.36602 22.6339C2.05931 22.984 1.28384 24.3271 1.63397 25.6339C1.98411 26.9406 3.32725 27.716 4.63397 27.3659C5.94069 27.0158 6.71616 25.6726 6.36602 24.3659C6.01589 23.0592 4.67274 22.2837 3.36602 22.6339Z" fill="#FF7A00"/>
<path d="M5.66675 23.8477C6.00823 24.4392 6.05556 25.0511 5.77245 25.2146C5.48935 25.378 5.50459 24.7225 5.1631 24.1311C4.82162 23.5396 4.25272 23.2361 4.53583 23.0727C4.81893 22.9092 5.32526 23.2562 5.66675 23.8477Z" fill="white" fill-opacity="0.5"/>
<path d="M5.916 24.7129C5.20507 25.8638 5.56178 27.3732 6.71274 28.0841C7.86369 28.795 9.37304 28.4383 10.084 27.2874C10.7949 26.1364 10.4382 24.627 9.28723 23.9161C8.13628 23.2052 6.62692 23.5619 5.916 24.7129Z" fill="#FF7A00"/>
<path d="M8.42277 24.0185C9.07692 24.2148 9.53105 24.6277 9.4371 24.9408C9.34314 25.2539 8.9047 24.7664 8.25055 24.5701C7.59639 24.3738 6.97425 24.5431 7.0682 24.23C7.16216 23.9169 7.76862 23.8222 8.42277 24.0185Z" fill="white" fill-opacity="0.5"/>
<path d="M7.24082 18.7915C5.888 18.7915 4.79133 19.8881 4.79133 21.2409C4.79133 22.5938 5.888 23.6904 7.24082 23.6904C8.59363 23.6904 9.69031 22.5938 9.69031 21.2409C9.69031 19.8881 8.59363 18.7915 7.24082 18.7915Z" fill="#FF7A00"/>
<path d="M9.14906 20.5591C9.32583 21.2188 9.21315 21.8221 8.89739 21.9067C8.58163 21.9913 8.766 21.3621 8.58924 20.7024C8.41247 20.0427 7.9415 19.6024 8.25726 19.5178C8.57302 19.4332 8.9723 19.8994 9.14906 20.5591Z" fill="white" fill-opacity="0.5"/>
<path d="M2.15672 18.9536C1.44579 20.1045 1.80251 21.6139 2.95346 22.3248C4.10441 23.0357 5.61377 22.679 6.32469 21.5281C7.03562 20.3771 6.67891 18.8678 5.52795 18.1568C4.377 17.4459 2.86765 17.8026 2.15672 18.9536Z" fill="#FF7A00"/>
<path d="M4.66349 18.2592C5.31765 18.4555 5.77178 18.8684 5.67782 19.1815C5.58387 19.4946 5.14542 19.0071 4.49127 18.8108C3.83712 18.6145 3.21497 18.7838 3.30892 18.4707C3.40288 18.1576 4.00934 18.0629 4.66349 18.2592Z" fill="white" fill-opacity="0.5"/>
<path d="M10.016 20.1196C8.84441 20.796 8.443 22.294 9.11941 23.4656C9.79581 24.6372 11.2939 25.0386 12.4655 24.3622C13.637 23.6858 14.0385 22.1877 13.362 21.0161C12.6856 19.8446 11.1876 19.4431 10.016 20.1196Z" fill="#FF7A00"/>
<path d="M12.5525 20.6965C13.0354 21.1794 13.2395 21.7583 13.0084 21.9895C12.7772 22.2206 12.6223 21.5835 12.1393 21.1006C11.6564 20.6176 11.0284 20.4718 11.2595 20.2406C11.4907 20.0094 12.0696 20.2136 12.5525 20.6965Z" fill="white" fill-opacity="0.5"/>
<path d="M11.1567 23.9536C10.4458 25.1045 10.8025 26.6139 11.9535 27.3248C13.1044 28.0357 14.6138 27.679 15.3247 26.5281C16.0356 25.3771 15.6789 23.8678 14.528 23.1568C13.377 22.4459 11.8676 22.8026 11.1567 23.9536Z" fill="#FF7A00"/>
<path d="M13.6635 23.2592C14.3176 23.4555 14.7718 23.8684 14.6778 24.1815C14.5839 24.4946 14.1454 24.0071 13.4913 23.8108C12.8371 23.6145 12.215 23.7838 12.3089 23.4707C12.4029 23.1576 13.0093 23.0629 13.6635 23.2592Z" fill="white" fill-opacity="0.5"/>
<path d="M13.7913 21.2407C13.7913 22.5936 14.888 23.6902 16.2408 23.6902C17.5936 23.6902 18.6903 22.5936 18.6903 21.2407C18.6903 19.8879 17.5936 18.7913 16.2408 18.7913C14.888 18.7913 13.7913 19.8879 13.7913 21.2407Z" fill="#FF7A00"/>
<path d="M15.5591 19.3326C16.2188 19.1559 16.8221 19.2685 16.9067 19.5843C16.9913 19.9001 16.3621 19.7157 15.7024 19.8925C15.0427 20.0692 14.6024 20.5402 14.5178 20.2244C14.4332 19.9087 14.8994 19.5094 15.5591 19.3326Z" fill="white" fill-opacity="0.5"/>
<path d="M2.50868 13.5089C1.5521 14.4655 1.5521 16.0164 2.50868 16.973C3.46527 17.9296 5.0162 17.9296 5.97278 16.973C6.92937 16.0164 6.92937 14.4655 5.97278 13.5089C5.0162 12.5523 3.46527 12.5523 2.50868 13.5089Z" fill="#FF7A00"/>
<path d="M5.10806 13.4095C5.69952 13.751 6.0465 14.2573 5.88305 14.5404C5.7196 14.8235 5.40504 14.2482 4.81358 13.9067C4.22211 13.5652 3.5777 13.5869 3.74115 13.3038C3.9046 13.0207 4.51659 13.068 5.10806 13.4095Z" fill="white" fill-opacity="0.5"/>
<path d="M5.15672 15.9536C4.44579 17.1045 4.80251 18.6139 5.95346 19.3248C7.10441 20.0357 8.61377 19.679 9.32469 18.5281C10.0356 17.3771 9.67891 15.8678 8.52795 15.1568C7.377 14.4459 5.86765 14.8026 5.15672 15.9536Z" fill="#FF7A00"/>
<path d="M7.66349 15.2592C8.31765 15.4555 8.77178 15.8684 8.67782 16.1815C8.58387 16.4946 8.14542 16.0071 7.49127 15.8108C6.83712 15.6145 6.21497 15.7838 6.30892 15.4707C6.40288 15.1576 7.00934 15.0629 7.66349 15.2592Z" fill="white" fill-opacity="0.5"/>
<path d="M9.8747 18.8747C10.2248 20.1814 11.568 20.9569 12.8747 20.6067C14.1814 20.2566 14.9569 18.9135 14.6068 17.6067C14.2566 16.3 12.9135 15.5246 11.6068 15.8747C10.3 16.2248 9.52457 17.568 9.8747 18.8747Z" fill="#FF7A00"/>
<path d="M11.0883 16.574C11.6798 16.2325 12.2917 16.1852 12.4552 16.4683C12.6186 16.7514 11.9631 16.7361 11.3717 17.0776C10.7802 17.4191 10.4767 17.988 10.3133 17.7049C10.1498 17.4218 10.4968 16.9155 11.0883 16.574Z" fill="white" fill-opacity="0.5"/>
<path d="M13.1567 13.9536C12.4458 15.1045 12.8025 16.6139 13.9535 17.3248C15.1044 18.0357 16.6138 17.679 17.3247 16.5281C18.0356 15.3771 17.6789 13.8678 16.528 13.1568C15.377 12.4459 13.8676 12.8026 13.1567 13.9536Z" fill="#FF7A00"/>
<path d="M15.6635 13.2592C16.3176 13.4555 16.7718 13.8684 16.6778 14.1815C16.5839 14.4946 16.1454 14.0071 15.4913 13.8108C14.8371 13.6145 14.215 13.7838 14.3089 13.4707C14.4029 13.1576 15.0093 13.0629 15.6635 13.2592Z" fill="white" fill-opacity="0.5"/>
<path d="M8.01598 11.1196C6.84441 11.796 6.443 13.294 7.11941 14.4656C7.79581 15.6372 9.2939 16.0386 10.4655 15.3622C11.637 14.6858 12.0385 13.1877 11.362 12.0161C10.6856 10.8446 9.18755 10.4431 8.01598 11.1196Z" fill="#FF7A00"/>
<path d="M10.5525 11.6965C11.0354 12.1794 11.2395 12.7583 11.0084 12.9895C10.7772 13.2206 10.6223 12.5835 10.1393 12.1006C9.65642 11.6176 9.02837 11.4718 9.25952 11.2406C9.49067 11.0094 10.0696 11.2136 10.5525 11.6965Z" fill="white" fill-opacity="0.5"/>
<path d="M22.362 13.4654C23.0384 12.2938 22.637 10.7957 21.4655 10.1193C20.2939 9.4429 18.7958 9.84431 18.1194 11.0159C17.443 12.1875 17.8444 13.6855 19.016 14.362C20.1875 15.0384 21.6856 14.6369 22.362 13.4654Z" fill="#FF7A00"/>
<path d="M19.8771 14.2343C19.2174 14.0575 18.7512 13.6582 18.8358 13.3425C18.9204 13.0267 19.3732 13.501 20.0329 13.6778C20.6926 13.8545 21.3094 13.6668 21.2248 13.9826C21.1402 14.2984 20.5368 14.411 19.8771 14.2343Z" fill="white" fill-opacity="0.5"/>
<path d="M14.1567 9.95358C13.4458 11.1045 13.8025 12.6139 14.9535 13.3248C16.1044 14.0357 17.6138 13.679 18.3247 12.5281C19.0356 11.3771 18.6789 9.86777 17.528 9.15684C16.377 8.44592 14.8676 8.80263 14.1567 9.95358Z" fill="#FF7A00"/>
<path d="M16.6635 9.25918C17.3176 9.45547 17.7718 9.86843 17.6778 10.1815C17.5839 10.4946 17.1454 10.0071 16.4913 9.81081C15.8371 9.61452 15.215 9.7838 15.3089 9.47069C15.4029 9.15759 16.0093 9.06289 16.6635 9.25918Z" fill="white" fill-opacity="0.5"/>
<path d="M12.2408 6.79145C10.888 6.79145 9.79133 7.88812 9.79133 9.24094C9.79133 10.5938 10.888 11.6904 12.2408 11.6904C13.5936 11.6904 14.6903 10.5938 14.6903 9.24094C14.6903 7.88812 13.5936 6.79145 12.2408 6.79145Z" fill="#FF7A00"/>
<path d="M14.1491 8.55905C14.3258 9.21875 14.2131 9.82213 13.8974 9.90674C13.5816 9.99135 13.766 9.36212 13.5892 8.70242C13.4125 8.04272 12.9415 7.60237 13.2573 7.51776C13.573 7.43315 13.9723 7.89935 14.1491 8.55905Z" fill="white" fill-opacity="0.5"/>
<path d="M2.15672 9.95358C1.44579 11.1045 1.80251 12.6139 2.95346 13.3248C4.10441 14.0357 5.61377 13.679 6.32469 12.5281C7.03562 11.3771 6.67891 9.86777 5.52795 9.15684C4.377 8.44592 2.86765 8.80263 2.15672 9.95358Z" fill="#FF7A00"/>
<path d="M4.66349 9.25918C5.31765 9.45547 5.77178 9.86843 5.67782 10.1815C5.58387 10.4946 5.14542 10.0071 4.49127 9.81081C3.83712 9.61452 3.21497 9.7838 3.30892 9.47069C3.40288 9.15759 4.00934 9.06289 4.66349 9.25918Z" fill="white" fill-opacity="0.5"/>
<path d="M6.15672 6.95358C5.44579 8.10454 5.80251 9.61389 6.95346 10.3248C8.10441 11.0357 9.61377 10.679 10.3247 9.52808C11.0356 8.37712 10.6789 6.86777 9.52795 6.15684C8.377 5.44592 6.86765 5.80263 6.15672 6.95358Z" fill="#FF7A00"/>
<path d="M8.66349 6.25918C9.31765 6.45547 9.77178 6.86843 9.67782 7.18153C9.58387 7.49464 9.14542 7.00711 8.49127 6.81081C7.83712 6.61452 7.21497 6.7838 7.30892 6.47069C7.40288 6.15759 8.00934 6.06289 8.66349 6.25918Z" fill="white" fill-opacity="0.5"/>
<path d="M18.2407 5.79145C16.8879 5.79145 15.7912 6.88812 15.7912 8.24094C15.7912 9.59375 16.8879 10.6904 18.2407 10.6904C19.5935 10.6904 20.6902 9.59375 20.6902 8.24094C20.6902 6.88812 19.5935 5.79145 18.2407 5.79145Z" fill="#FF7A00"/>
<path d="M20.1489 7.55905C20.3257 8.21875 20.213 8.82213 19.8973 8.90674C19.5815 8.99135 19.7659 8.36212 19.5891 7.70242C19.4123 7.04272 18.9414 6.60237 19.2571 6.51776C19.5729 6.43315 19.9722 6.89935 20.1489 7.55905Z" fill="white" fill-opacity="0.5"/>
<path d="M17.1567 15.9536C16.4458 17.1045 16.8025 18.6139 17.9535 19.3248C19.1044 20.0357 20.6138 19.679 21.3247 18.5281C22.0356 17.3771 21.6789 15.8678 20.528 15.1568C19.377 14.4459 17.8676 14.8026 17.1567 15.9536Z" fill="#FF7A00"/>
<path d="M19.6635 15.2592C20.3176 15.4555 20.7718 15.8684 20.6778 16.1815C20.5839 16.4946 20.1454 16.0071 19.4913 15.8108C18.8371 15.6145 18.215 15.7838 18.3089 15.4707C18.4029 15.1576 19.0093 15.0629 19.6635 15.2592Z" fill="white" fill-opacity="0.5"/>
<path d="M16.1567 24.9536C15.4458 26.1045 15.8025 27.6139 16.9535 28.3248C18.1044 29.0357 19.6138 28.679 20.3247 27.5281C21.0356 26.3771 20.6789 24.8678 19.528 24.1568C18.377 23.4459 16.8676 23.8026 16.1567 24.9536Z" fill="#FF7A00"/>
<path d="M18.6635 24.2592C19.3176 24.4555 19.7718 24.8684 19.6778 25.1815C19.5839 25.4946 19.1454 25.0071 18.4913 24.8108C17.8371 24.6145 17.215 24.7838 17.3089 24.4707C17.4029 24.1576 18.0093 24.0629 18.6635 24.2592Z" fill="white" fill-opacity="0.5"/>
<path d="M18.1567 21.9536C17.4458 23.1045 17.8025 24.6139 18.9535 25.3248C20.1044 26.0357 21.6138 25.679 22.3247 24.5281C23.0356 23.3771 22.6789 21.8678 21.528 21.1568C20.377 20.4459 18.8676 20.8026 18.1567 21.9536Z" fill="#FF7A00"/>
<path d="M20.6635 21.2592C21.3176 21.4555 21.7718 21.8684 21.6778 22.1815C21.5839 22.4946 21.1454 22.0071 20.4913 21.8108C19.8371 21.6145 19.215 21.7838 19.3089 21.4707C19.4029 21.1576 20.0093 21.0629 20.6635 21.2592Z" fill="white" fill-opacity="0.5"/>
<path d="M19.1719 4.70437V2.25C19.1719 1.75686 18.976 1.28392 18.6273 0.935223C18.2786 0.586523 17.8056 0.390625 17.3125 0.390625H6.6875C6.19436 0.390625 5.72142 0.586523 5.37272 0.935223C5.02402 1.28392 4.82812 1.75686 4.82812 2.25V4.70437C3.64344 4.89517 2.5653 5.50129 1.78663 6.41428C1.00796 7.32727 0.579574 8.48755 0.578125 9.6875V24.5625C0.578125 25.901 1.10985 27.1847 2.05632 28.1312C3.00279 29.0777 4.28649 29.6094 5.625 29.6094H18.375C19.7135 29.6094 20.9972 29.0777 21.9437 28.1312C22.8902 27.1847 23.4219 25.901 23.4219 24.5625V9.6875C23.4204 8.48755 22.992 7.32727 22.2134 6.41428C21.4347 5.50129 20.3566 4.89517 19.1719 4.70437ZM17.5781 2.25V4.64062H14.9219V1.98438H17.3125C17.3829 1.98438 17.4505 2.01236 17.5003 2.06217C17.5501 2.11199 17.5781 2.17955 17.5781 2.25ZM10.6719 4.64062V1.98438H13.3281V4.64062H10.6719ZM6.6875 1.98438H9.07812V4.64062H6.42188V2.25C6.42188 2.17955 6.44986 2.11199 6.49967 2.06217C6.54949 2.01236 6.61705 1.98438 6.6875 1.98438ZM21.8281 24.5625C21.8281 25.016 21.7388 25.465 21.5653 25.884C21.3917 26.3029 21.1374 26.6836 20.8167 27.0042C20.4961 27.3249 20.1154 27.5792 19.6965 27.7528C19.2775 27.9263 18.8285 28.0156 18.375 28.0156H5.625C5.17153 28.0156 4.7225 27.9263 4.30355 27.7528C3.88459 27.5792 3.50392 27.3249 3.18327 27.0042C2.86262 26.6836 2.60826 26.3029 2.43473 25.884C2.26119 25.465 2.17188 25.016 2.17188 24.5625V9.6875C2.17188 8.77167 2.53569 7.89336 3.18327 7.24577C3.83086 6.59819 4.70917 6.23438 5.625 6.23438H18.375C19.2908 6.23438 20.1691 6.59819 20.8167 7.24577C21.4643 7.89336 21.8281 8.77167 21.8281 9.6875V24.5625Z" fill="white"/>
</svg>
