<svg width="31" height="31" viewBox="0 0 31 31" fill="none" xmlns="http://www.w3.org/2000/svg">
<path d="M3.66988 18.7758C5.42055 25.3094 12.1363 29.1868 18.6699 27.4361C25.2035 25.6854 29.0808 18.9697 27.3301 12.4361C25.5795 5.9025 18.8637 2.02521 12.3301 3.77581C5.79653 5.52651 1.9192 12.2422 3.66988 18.7758Z" fill="#FF7A00"/>
<path d="M9.73871 7.27147C12.6961 5.56407 15.756 5.32747 16.5732 6.74297C17.3905 8.15847 14.1129 8.08227 11.1556 9.78977C8.19824 11.4972 6.68098 14.3416 5.86373 12.9261C5.04647 11.5106 6.78136 8.97897 9.73871 7.27147Z" fill="white" fill-opacity="0.5"/>
<path d="M13.0456 20.4482L15.1691 19.2443L13.0456 18.0298L13.0456 16.8686L15.7728 18.5696L18.5001 16.8544L18.5001 18.0156L16.4617 19.2443L18.5001 20.4695L18.5001 21.6343L15.7728 19.9368L13.0456 21.613L13.0456 20.4482ZM18.5995 13.2607C18.5995 13.7483 18.5155 14.1839 18.3474 14.5675C18.1793 14.9486 17.9461 15.2505 17.6478 15.473C17.3472 15.6932 16.9992 15.8116 16.6038 15.8281L16.6038 14.7131C16.8192 14.6989 17.0063 14.6267 17.1649 14.4964C17.3211 14.3639 17.4419 14.1911 17.5271 13.978C17.6123 13.7649 17.6549 13.5282 17.6549 13.2678C17.6549 12.9813 17.6052 12.728 17.5058 12.5078C17.4063 12.2853 17.2679 12.1113 17.0903 11.9858C16.9104 11.8603 16.7032 11.7976 16.4689 11.7976C16.225 11.7976 16.0108 11.8603 15.8261 11.9858C15.6391 12.1089 15.4923 12.29 15.3858 12.5291C15.2792 12.7659 15.226 13.0523 15.226 13.3885L15.226 14.0028L14.3311 14.0028L14.3311 13.3885C14.3311 13.1186 14.2825 12.8819 14.1855 12.6783C14.0884 12.4723 13.9535 12.3113 13.7806 12.1953C13.6055 12.0793 13.4007 12.0213 13.1663 12.0213C12.9414 12.0213 12.7461 12.0722 12.5804 12.174C12.4123 12.2734 12.2809 12.4155 12.1862 12.6001C12.0915 12.7824 12.0441 12.9979 12.0441 13.2464C12.0441 13.4832 12.0879 13.7045 12.1755 13.9105C12.2608 14.1141 12.3839 14.2798 12.5448 14.4077C12.7035 14.5355 12.894 14.6042 13.1166 14.6136L13.1166 15.6754C12.7236 15.6636 12.3779 15.5476 12.0796 15.3274C11.7813 15.1049 11.5482 14.8113 11.3801 14.4467C11.212 14.0821 11.1279 13.6773 11.1279 13.2322C11.1279 12.7659 11.2191 12.3634 11.4014 12.0249C11.5813 11.6839 11.8216 11.4212 12.1223 11.2365C12.4229 11.0495 12.752 10.9571 13.1095 10.9595C13.5167 10.9571 13.8623 11.0708 14.1464 11.3004C14.4305 11.5277 14.6211 11.8307 14.7181 12.2095L14.775 12.2095C14.8483 11.7266 15.0401 11.3525 15.3502 11.0874C15.6604 10.8198 16.0451 10.6873 16.5044 10.6896C16.9045 10.6873 17.2631 10.7985 17.5804 11.0234C17.8976 11.246 18.1474 11.5502 18.3296 11.9361C18.5096 12.322 18.5995 12.7635 18.5995 13.2607Z" fill="white"/>
</svg>
